<svg width="132" height="132" viewBox="0 0 132 132" fill="none" xmlns="http://www.w3.org/2000/svg">
<path d="M118.662 74.0435L122.383 73.3146L123.176 68.8566L119.934 66.8919L120.189 65.4584L130.698 71.8836L130.471 73.1595L118.401 75.5085L118.662 74.0435ZM123.718 73.1158L127.344 72.4672C127.434 72.4508 127.595 72.4256 127.829 72.3918C128.062 72.3579 128.301 72.325 128.545 72.293C128.798 72.2734 128.991 72.2539 129.124 72.2346C128.814 72.092 128.51 71.9452 128.212 71.7941C127.922 71.6553 127.694 71.5384 127.526 71.4433L124.352 69.5557L123.718 73.1158Z" fill="white"/>
<path d="M116.175 85.9327L126.041 91.693L125.32 92.9398L116.56 87.8249L114.063 92.1472L112.957 91.5018L116.175 85.9327Z" fill="white"/>
<path d="M112.005 112.21C110.87 113.181 109.854 113.665 108.956 113.661C108.059 113.658 107.265 113.249 106.575 112.435C106.169 111.955 105.895 111.409 105.756 110.799C105.615 110.203 105.689 109.557 105.979 108.86C106.261 108.169 106.835 107.453 107.702 106.71L108.699 105.857L105.824 102.463L106.918 101.527L114.302 110.243L112.005 112.21ZM111.306 111.187L112.412 110.24L109.495 106.797L108.62 107.546C107.793 108.254 107.291 108.915 107.114 109.531C106.936 110.146 107.12 110.775 107.664 111.418C108.14 111.98 108.678 112.243 109.277 112.208C109.868 112.179 110.544 111.839 111.306 111.187Z" fill="white"/>
<path d="M84.4073 116.536L85.7603 116.043L87.5674 121.056L93.0696 119.051L91.2625 114.039L92.6155 113.546L96.4902 124.293L95.1372 124.786L93.4983 120.24L87.9961 122.245L89.635 126.79L88.282 127.283L84.4073 116.536Z" fill="white"/>
<path d="M66.5127 119.866L67.8342 123.423L72.3617 123.493L73.7758 119.979L75.2317 120.001L70.592 131.403L69.2962 131.383L65.0249 119.843L66.5127 119.866ZM68.2465 124.71L69.4733 128.185C69.504 128.271 69.5549 128.426 69.6262 128.651C69.6974 128.877 69.7685 129.107 69.8396 129.343C69.8998 129.589 69.9502 129.777 69.9909 129.905C70.0813 129.576 70.177 129.252 70.2779 128.934C70.368 128.626 70.4464 128.381 70.5132 128.201L71.8621 124.766L68.2465 124.71Z" fill="white"/>
<path d="M50.3588 129.983L47.3225 128.785C46.0028 128.264 45.0782 127.67 44.5487 127.003C44.0192 126.335 43.9426 125.519 44.3188 124.556C44.5632 123.93 44.9405 123.476 45.4507 123.196C45.9571 122.926 46.5609 122.86 47.2624 122.999L47.2915 122.925C46.876 122.669 46.5265 122.376 46.243 122.047C45.9495 121.713 45.7665 121.331 45.6939 120.901C45.6213 120.471 45.6917 119.983 45.905 119.436C46.2813 118.473 46.9046 117.859 47.775 117.594C48.6355 117.326 49.6363 117.417 50.7774 117.867L54.5132 119.341L50.3588 129.983ZM50.7881 124.923L48.8234 124.148C47.9204 123.792 47.244 123.691 46.7942 123.846C46.3305 124.008 45.9862 124.376 45.7612 124.953C45.5324 125.539 45.5778 126.038 45.8976 126.451C46.2036 126.87 46.808 127.257 47.711 127.614L49.4672 128.306L50.7881 124.923ZM51.2244 123.805L52.7314 119.945L50.5882 119.1C49.6455 118.728 48.9189 118.653 48.4082 118.876C47.8976 119.099 47.5259 119.508 47.2931 120.104C47.0759 120.661 47.0948 121.184 47.3499 121.675C47.5912 122.171 48.203 122.613 49.1854 123.001L51.2244 123.805Z" fill="white"/>
<path d="M25.593 109.563C26.3907 108.688 27.2368 108.061 28.1314 107.681C29.0109 107.302 29.9062 107.199 30.8173 107.371C31.7206 107.536 32.5919 108.005 33.4314 108.778C34.3022 109.581 34.8626 110.43 35.1126 111.328C35.3548 112.218 35.3189 113.12 35.0048 114.035C34.6908 114.949 34.135 115.844 33.3373 116.719C32.5541 117.578 31.7266 118.201 30.8549 118.587C29.976 118.981 29.085 119.096 28.1817 118.931C27.2706 118.759 26.3757 118.268 25.497 117.458C24.6576 116.685 24.1168 115.853 23.8746 114.963C23.6253 114.081 23.6537 113.179 23.9599 112.257C24.251 111.336 24.7954 110.438 25.593 109.563ZM32.2302 115.677C33.2003 114.613 33.742 113.568 33.8553 112.541C33.9615 111.522 33.5399 110.575 32.5906 109.701C31.6413 108.826 30.6704 108.49 29.6777 108.692C28.67 108.895 27.6811 109.529 26.711 110.593C25.7409 111.657 25.2024 112.691 25.0956 113.695C24.9816 114.707 25.3993 115.65 26.3486 116.524C27.3057 117.406 28.2845 117.749 29.285 117.554C30.2783 117.367 31.2601 116.741 32.2302 115.677Z" fill="white"/>
<path d="M18.6496 91.0083L19.3815 92.467L16.3136 97.4127L22.1151 97.9157L22.7967 99.2743L15.7875 98.5763L12.4997 104.226L11.7822 102.795L14.5225 98.2669L9.26384 97.7757L8.58223 96.4171L15.02 97.1178L18.6496 91.0083Z" fill="white"/>
<path d="M8.96598 74.7695L10.0829 74.6347L10.4757 77.9238L13.7566 77.5279L13.889 78.6372L10.6081 79.0331L11.0009 82.3222L9.88404 82.457L9.49125 79.1679L6.20261 79.5647L6.07013 78.4554L9.35877 78.0586L8.96598 74.7695Z" fill="white"/>
<path d="M13.683 55.4621L9.92671 55.9761L8.88092 60.3817L12.0053 62.5297L11.669 63.9463L1.54445 56.9271L1.84378 55.6662L14.0266 54.0143L13.683 55.4621ZM8.58224 56.0979L4.92594 56.5371C4.83557 56.5484 4.67286 56.5642 4.43779 56.5846C4.20272 56.605 3.96247 56.6241 3.71703 56.642C3.46368 56.6471 3.26985 56.6554 3.13553 56.6671C3.43736 56.8272 3.73278 56.9913 4.02178 57.1594C4.30287 57.3146 4.52419 57.4444 4.68574 57.549L7.74709 59.6161L8.58224 56.0979Z" fill="white"/>
<path d="M16.8757 43.628L7.36655 37.2969L8.15883 36.0944L16.6025 41.7162L19.3491 37.5477L20.4145 38.2571L16.8757 43.628Z" fill="white"/>
<path d="M22.4401 17.7294C23.6293 16.826 24.6719 16.4024 25.568 16.4583C26.4642 16.5143 27.2327 16.9686 27.8737 17.8212C28.2519 18.3243 28.4929 18.8846 28.5969 19.5021C28.703 20.1047 28.591 20.7457 28.261 21.425C27.9395 22.0979 27.3243 22.7796 26.4155 23.47L25.3707 24.2636L28.0436 27.819L26.8969 28.6901L20.0322 19.5586L22.4401 17.7294ZM23.0785 18.7916L21.9191 19.6723L24.6304 23.2788L25.5478 22.582C26.4141 21.9238 26.9539 21.2928 27.1671 20.6888C27.3802 20.0848 27.2336 19.446 26.7273 18.7725C26.285 18.1842 25.7638 17.8903 25.1636 17.8907C24.572 17.8848 23.877 18.185 23.0785 18.7916Z" fill="white"/>
<path d="M50.3352 14.9385L48.9548 15.3486L47.452 10.2369L41.8385 11.9047L43.3413 17.0163L41.961 17.4264L38.7386 6.46632L40.119 6.05622L41.4819 10.692L47.0954 9.02425L45.7324 4.38847L47.1128 3.97836L50.3352 14.9385Z" fill="white"/>
<path d="M68.3625 12.6401L67.2618 9.00797L62.7474 8.65722L61.1203 12.0775L59.6687 11.9647L64.999 0.872238L66.2911 0.97263L69.846 12.7554L68.3625 12.6401ZM66.9292 7.69827L65.9181 4.15329C65.8927 4.06573 65.8514 3.90739 65.7941 3.67827C65.7369 3.44914 65.68 3.2147 65.6236 2.97494C65.5786 2.72537 65.5397 2.53512 65.507 2.40419C65.3966 2.72728 65.2812 3.04463 65.161 3.35625C65.0522 3.65806 64.9589 3.89689 64.8812 4.07273L63.3241 7.41817L66.9292 7.69827Z" fill="white"/>
<path d="M84.8992 3.37431L87.8582 4.75182C89.1444 5.35054 90.0318 5.99897 90.5205 6.69711C91.0092 7.39524 91.0371 8.21418 90.6042 9.15392C90.323 9.76427 89.9195 10.1941 89.3936 10.4435C88.8721 10.6831 88.2655 10.7125 87.5737 10.5317L87.5403 10.6043C87.9397 10.8844 88.2711 11.1975 88.5344 11.5436C88.8074 11.8943 88.9674 12.2864 89.0142 12.72C89.0611 13.1536 88.9618 13.6369 88.7163 14.1697C88.2834 15.1094 87.6247 15.6852 86.7403 15.8971C85.8655 16.1134 84.8721 15.9628 83.76 15.4451L80.1192 13.7502L84.8992 3.37431ZM84.1695 8.39979L86.0842 9.29112C86.9641 9.70077 87.6332 9.84164 88.0915 9.71375C88.5638 9.58066 88.9294 9.23317 89.1883 8.67126C89.4516 8.09967 89.436 7.59823 89.1414 7.16696C88.861 6.73051 88.2808 6.30745 87.4008 5.8978L85.6891 5.10101L84.1695 8.39979ZM83.6674 9.48969L81.9334 13.2535L84.0222 14.2259C84.9409 14.6535 85.6617 14.7714 86.1846 14.5795C86.7075 14.3876 87.1029 14.001 87.3707 13.4197C87.6206 12.8772 87.6329 12.3535 87.4075 11.8485C87.1962 11.3384 86.6119 10.8604 85.6546 10.4148L83.6674 9.48969Z" fill="white"/>
<path d="M108.759 25.4192C107.908 26.2433 107.025 26.8172 106.109 27.1409C105.208 27.4649 104.308 27.5129 103.409 27.2847C102.518 27.0643 101.677 26.5423 100.887 25.7187C100.067 24.8643 99.5603 23.9815 99.3661 23.0704C99.1794 22.1669 99.271 21.2685 99.6408 20.3752C100.011 19.4819 100.621 18.6232 101.471 17.7991C102.306 16.9899 103.17 16.4194 104.064 16.0877C104.965 15.7486 105.862 15.6893 106.753 15.9097C107.652 16.1378 108.515 16.6829 109.342 17.545C110.132 18.3687 110.62 19.2322 110.807 20.1356C111.001 21.0316 110.917 21.9302 110.555 22.8312C110.207 23.7325 109.609 24.5952 108.759 25.4192ZM102.512 18.9071C101.478 19.9094 100.872 20.9195 100.696 21.9373C100.527 22.9477 100.889 23.9187 101.783 24.8501C102.676 25.7815 103.625 26.1769 104.628 26.0362C105.646 25.8959 106.672 25.3246 107.706 24.3223C108.74 23.3201 109.342 22.3213 109.51 21.326C109.686 20.3233 109.328 19.3562 108.434 18.4248C107.533 17.4857 106.578 17.0826 105.567 17.2155C104.564 17.341 103.546 17.9049 102.512 18.9071Z" fill="white"/>
<path d="M114.518 44.2145L113.874 42.7149L117.231 37.9615L111.468 37.1138L110.868 35.7172L117.825 36.8315L121.442 31.3891L122.074 32.8592L119.069 37.2157L124.29 38.0193L124.89 39.4159L118.505 38.333L114.518 44.2145Z" fill="white"/>
<path d="M123.278 61.2299L122.155 61.2953L121.964 57.9883L118.665 58.1804L118.601 57.0651L121.9 56.8729L121.709 53.5659L122.832 53.5005L123.023 56.8075L126.33 56.6149L126.394 57.7302L123.087 57.9228L123.278 61.2299Z" fill="white"/>
<path d="M38.649 69.3663V70.1983H44.025V69.3663H38.649ZM38.649 67.3823V68.1663H44.025V67.3823H38.649ZM36.761 71.4463V66.3743C36.217 66.6943 35.673 66.9503 35.097 67.1743C34.825 66.7263 34.281 66.0223 33.881 65.6543C35.657 65.0943 37.385 64.0223 38.617 62.8063H34.345V61.1583H40.457V59.3663H42.345V61.1583H48.585V62.8063H44.537C46.073 63.7503 47.689 64.8223 48.633 65.6223L47.417 66.9983C46.329 66.0063 44.169 64.5023 42.345 63.3663V65.6703H40.457V63.2543C39.545 64.3583 38.409 65.3503 37.161 66.1343H46.025V71.4463H36.761ZM34.457 73.8623V72.1983H48.441V73.8623H34.457ZM61.129 68.5343V67.8463H55.337V68.5343H61.129ZM55.337 72.3423H61.129V71.6063H55.337V72.3423ZM61.129 70.4223V69.7183H55.337V70.4223H61.129ZM64.553 65.7503H55.929C55.817 65.9743 55.689 66.1823 55.561 66.4063H63.049V74.3583H61.129V73.7823H55.337V74.3583H53.513V69.0943C52.793 69.8143 51.977 70.4703 51.049 71.0143C50.777 70.5663 50.217 69.8623 49.849 69.4783C51.513 68.5823 52.793 67.2543 53.753 65.7503H50.345V64.2463H54.553C54.665 64.0223 54.761 63.7823 54.857 63.5583H51.465V62.1183H55.369C55.433 61.8943 55.497 61.6703 55.545 61.4303C54.217 61.4783 52.889 61.4943 51.641 61.4783C51.625 61.0623 51.449 60.4383 51.289 60.0543C55.193 60.0543 59.817 59.8623 62.505 59.4143L63.625 60.7743C61.929 61.0623 59.833 61.2383 57.641 61.3503C57.577 61.6063 57.497 61.8623 57.417 62.1183H63.689V63.5583H56.905C56.825 63.7823 56.729 64.0223 56.633 64.2463H64.553V65.7503ZM72.265 69.3023H69.785C70.249 69.8783 70.745 70.3263 71.337 70.6943C71.801 70.2623 72.073 69.8143 72.265 69.3023ZM69.625 66.7103V67.7503H72.553C72.569 67.5743 72.569 67.3983 72.569 67.2223V66.7103H69.625ZM69.625 64.2623V65.2863H72.569V64.2623H69.625ZM77.577 64.2623H74.569V65.2863H77.577V64.2623ZM77.577 67.7503V66.7103H74.569V67.2383C74.569 67.3983 74.569 67.5743 74.553 67.7503H77.577ZM79.465 69.3023H74.329C74.121 70.1023 73.753 70.8703 73.161 71.5263C75.241 72.2143 77.865 72.2783 81.113 72.2623C80.761 72.6943 80.409 73.4943 80.297 74.1503C76.825 74.0703 73.881 73.8303 71.593 72.8223C70.521 73.4303 69.113 73.9583 67.257 74.3263C67.033 73.8783 66.521 73.0783 66.105 72.6303C67.641 72.3903 68.809 72.0703 69.721 71.6863C69.097 71.2063 68.553 70.5983 68.073 69.8943L69.529 69.3023H67.833V62.7263H72.569V61.7823H66.441V60.0863H80.457V61.7823H74.569V62.7263H79.465V69.3023ZM91.561 62.3423H87.577C87.433 62.4543 87.273 62.5503 87.113 62.6623C87.785 63.1423 88.457 63.7183 88.921 64.2143C89.945 63.6863 90.857 63.0463 91.561 62.3423ZM93.337 60.5823L94.585 61.3343C92.521 65.0143 87.977 66.9983 83.369 67.8623C83.193 67.3823 82.825 66.5983 82.489 66.1823C84.105 65.9423 85.737 65.5423 87.209 64.9663C86.777 64.5183 86.201 63.9903 85.641 63.5263C85.177 63.7823 84.697 64.0223 84.185 64.2463C83.897 63.8143 83.305 63.1583 82.889 62.8863C85.465 61.9263 87.369 60.5663 88.441 59.3183L90.489 59.7983C90.217 60.0863 89.929 60.3743 89.625 60.6623H93.001L93.337 60.5823ZM93.785 68.2463H90.153C89.849 68.4543 89.529 68.6623 89.225 68.8703C89.881 69.3503 90.601 69.9423 91.097 70.4543C92.185 69.8623 93.097 69.1263 93.785 68.2463ZM95.385 66.4703L96.697 67.2223C94.441 72.0863 89.193 73.7663 83.097 74.3423C82.953 73.8143 82.633 72.9823 82.329 72.5023C84.857 72.3263 87.241 71.9583 89.257 71.2383C88.809 70.7743 88.169 70.2303 87.593 69.7503C86.953 70.0703 86.265 70.3743 85.529 70.6303C85.305 70.1983 84.761 69.4943 84.361 69.1583C87.657 68.1343 89.865 66.5663 91.081 65.0143L93.145 65.4943C92.825 65.8623 92.521 66.2143 92.169 66.5663H95.033L95.385 66.4703Z" fill="white"/>
</svg>
